<svg xmlns="http://www.w3.org/2000/svg" xmlns:xlink="http://www.w3.org/1999/xlink" width="500" zoomAndPan="magnify" viewBox="0 0 375 374.999991" height="500" preserveAspectRatio="xMidYMid meet" version="1.2"><defs><clipPath id="9224b2c523"><rect x="0" width="169" y="0" height="298"/></clipPath><clipPath id="c560438d84"><rect x="0" width="192" y="0" height="298"/></clipPath><clipPath id="6ca4ca7a42"><rect x="0" width="166" y="0" height="28"/></clipPath></defs><g id="afffa52873"><rect x="0" width="375" y="0" height="374.999991" style="fill:#ffffff;fill-opacity:1;stroke:none;"/><rect x="0" width="375" y="0" height="374.999991" style="fill:#ffffff;fill-opacity:1;stroke:none;"/><g transform="matrix(1,0,0,1,14,39)"><g clip-path="url(#9224b2c523)"><g style="fill:#ffffff;fill-opacity:1;"><g transform="translate(-5.185735, 247.169549)"><path style="stroke:none" d="M 155.171875 -46.34375 C 155.171875 -37.613281 153.023438 -29.765625 148.734375 -22.796875 C 144.453125 -15.828125 138.660156 -10.285156 131.359375 -6.171875 C 124.054688 -2.054688 115.953125 0 107.046875 0 L 23.421875 0 L 23.421875 -178.84375 L 106.796875 -178.84375 C 115.191406 -178.84375 122.453125 -176.613281 128.578125 -172.15625 C 134.710938 -167.707031 139.414062 -162 142.6875 -155.03125 C 145.96875 -148.0625 147.609375 -140.800781 147.609375 -133.25 C 147.609375 -124.351562 145.335938 -116.082031 140.796875 -108.4375 C 136.265625 -100.800781 129.972656 -95.21875 121.921875 -91.6875 C 132.160156 -88.664062 140.257812 -83 146.21875 -74.6875 C 152.1875 -66.375 155.171875 -56.925781 155.171875 -46.34375 Z M 142.3125 -48.109375 C 142.3125 -54.492188 140.84375 -60.457031 137.90625 -66 C 134.96875 -71.539062 130.976562 -76.070312 125.9375 -79.59375 C 120.90625 -83.125 115.195312 -84.890625 108.8125 -84.890625 L 36.265625 -84.890625 L 36.265625 -11.59375 L 107.046875 -11.59375 C 113.597656 -11.59375 119.5625 -13.3125 124.9375 -16.75 C 130.3125 -20.195312 134.550781 -24.734375 137.65625 -30.359375 C 140.757812 -35.984375 142.3125 -41.898438 142.3125 -48.109375 Z M 36.265625 -167.25 L 36.265625 -95.71875 L 101.765625 -95.71875 C 108.316406 -95.71875 114.066406 -97.4375 119.015625 -100.875 C 123.972656 -104.320312 127.878906 -108.773438 130.734375 -114.234375 C 133.585938 -119.691406 135.015625 -125.441406 135.015625 -131.484375 C 135.015625 -138.035156 133.671875 -144 130.984375 -149.375 C 128.296875 -154.75 124.554688 -159.070312 119.765625 -162.34375 C 114.984375 -165.613281 109.488281 -167.25 103.28125 -167.25 Z M 36.265625 -167.25 "/></g></g><g style="fill:#000000;fill-opacity:1;"><g transform="translate(0.76749, 236.429647)"><path style="stroke:none" d="M 155.171875 -46.34375 C 155.171875 -37.613281 153.023438 -29.765625 148.734375 -22.796875 C 144.453125 -15.828125 138.660156 -10.285156 131.359375 -6.171875 C 124.054688 -2.054688 115.953125 0 107.046875 0 L 23.421875 0 L 23.421875 -178.84375 L 106.796875 -178.84375 C 115.191406 -178.84375 122.453125 -176.613281 128.578125 -172.15625 C 134.710938 -167.707031 139.414062 -162 142.6875 -155.03125 C 145.96875 -148.0625 147.609375 -140.800781 147.609375 -133.25 C 147.609375 -124.351562 145.335938 -116.082031 140.796875 -108.4375 C 136.265625 -100.800781 129.972656 -95.21875 121.921875 -91.6875 C 132.160156 -88.664062 140.257812 -83 146.21875 -74.6875 C 152.1875 -66.375 155.171875 -56.925781 155.171875 -46.34375 Z M 142.3125 -48.109375 C 142.3125 -54.492188 140.84375 -60.457031 137.90625 -66 C 134.96875 -71.539062 130.976562 -76.070312 125.9375 -79.59375 C 120.90625 -83.125 115.195312 -84.890625 108.8125 -84.890625 L 36.265625 -84.890625 L 36.265625 -11.59375 L 107.046875 -11.59375 C 113.597656 -11.59375 119.5625 -13.3125 124.9375 -16.75 C 130.3125 -20.195312 134.550781 -24.734375 137.65625 -30.359375 C 140.757812 -35.984375 142.3125 -41.898438 142.3125 -48.109375 Z M 36.265625 -167.25 L 36.265625 -95.71875 L 101.765625 -95.71875 C 108.316406 -95.71875 114.066406 -97.4375 119.015625 -100.875 C 123.972656 -104.320312 127.878906 -108.773438 130.734375 -114.234375 C 133.585938 -119.691406 135.015625 -125.441406 135.015625 -131.484375 C 135.015625 -138.035156 133.671875 -144 130.984375 -149.375 C 128.296875 -154.75 124.554688 -159.070312 119.765625 -162.34375 C 114.984375 -165.613281 109.488281 -167.25 103.28125 -167.25 Z M 36.265625 -167.25 "/></g></g></g></g><g transform="matrix(1,0,0,1,163,39)"><g clip-path="url(#c560438d84)"><g style="fill:#ffffff;fill-opacity:1;"><g transform="translate(-4.826339, 247.169549)"><path style="stroke:none" d="M 94.703125 1.265625 C 82.285156 1.265625 70.953125 -1.296875 60.703125 -6.421875 C 50.460938 -11.546875 41.644531 -18.390625 34.25 -26.953125 C 26.863281 -35.515625 21.15625 -45.210938 17.125 -56.046875 C 13.09375 -66.878906 11.078125 -78.003906 11.078125 -89.421875 C 11.078125 -101.347656 13.175781 -112.722656 17.375 -123.546875 C 21.570312 -134.378906 27.488281 -144.035156 35.125 -152.515625 C 42.769531 -160.992188 51.671875 -167.710938 61.828125 -172.671875 C 71.992188 -177.628906 83.039062 -180.109375 94.96875 -180.109375 C 107.5625 -180.109375 118.9375 -177.503906 129.09375 -172.296875 C 139.25 -167.085938 148.019531 -160.113281 155.40625 -151.375 C 162.800781 -142.644531 168.515625 -132.90625 172.546875 -122.15625 C 176.578125 -111.414062 178.59375 -100.503906 178.59375 -89.421875 C 178.59375 -77.328125 176.492188 -65.863281 172.296875 -55.03125 C 168.097656 -44.207031 162.175781 -34.550781 154.53125 -26.0625 C 146.894531 -17.582031 137.992188 -10.90625 127.828125 -6.03125 C 117.671875 -1.164062 106.628906 1.265625 94.703125 1.265625 Z M 23.921875 -89.421875 C 23.921875 -79.179688 25.6875 -69.359375 29.21875 -59.953125 C 32.75 -50.546875 37.660156 -42.144531 43.953125 -34.75 C 50.253906 -27.363281 57.726562 -21.488281 66.375 -17.125 C 75.019531 -12.757812 84.550781 -10.578125 94.96875 -10.578125 C 105.539062 -10.578125 115.191406 -12.84375 123.921875 -17.375 C 132.660156 -21.914062 140.132812 -27.960938 146.34375 -35.515625 C 152.5625 -43.078125 157.304688 -51.515625 160.578125 -60.828125 C 163.847656 -70.148438 165.484375 -79.679688 165.484375 -89.421875 C 165.484375 -99.660156 163.765625 -109.484375 160.328125 -118.890625 C 156.890625 -128.296875 151.976562 -136.691406 145.59375 -144.078125 C 139.207031 -151.472656 131.691406 -157.351562 123.046875 -161.71875 C 114.398438 -166.082031 105.039062 -168.265625 94.96875 -168.265625 C 84.21875 -168.265625 74.472656 -165.992188 65.734375 -161.453125 C 57.003906 -156.921875 49.570312 -150.875 43.4375 -143.3125 C 37.3125 -135.757812 32.523438 -127.320312 29.078125 -118 C 25.640625 -108.6875 23.921875 -99.160156 23.921875 -89.421875 Z M 23.921875 -89.421875 "/></g></g><g style="fill:#000000;fill-opacity:1;"><g transform="translate(1.126888, 236.429647)"><path style="stroke:none" d="M 94.703125 1.265625 C 82.285156 1.265625 70.953125 -1.296875 60.703125 -6.421875 C 50.460938 -11.546875 41.644531 -18.390625 34.25 -26.953125 C 26.863281 -35.515625 21.15625 -45.210938 17.125 -56.046875 C 13.09375 -66.878906 11.078125 -78.003906 11.078125 -89.421875 C 11.078125 -101.347656 13.175781 -112.722656 17.375 -123.546875 C 21.570312 -134.378906 27.488281 -144.035156 35.125 -152.515625 C 42.769531 -160.992188 51.671875 -167.710938 61.828125 -172.671875 C 71.992188 -177.628906 83.039062 -180.109375 94.96875 -180.109375 C 107.5625 -180.109375 118.9375 -177.503906 129.09375 -172.296875 C 139.25 -167.085938 148.019531 -160.113281 155.40625 -151.375 C 162.800781 -142.644531 168.515625 -132.90625 172.546875 -122.15625 C 176.578125 -111.414062 178.59375 -100.503906 178.59375 -89.421875 C 178.59375 -77.328125 176.492188 -65.863281 172.296875 -55.03125 C 168.097656 -44.207031 162.175781 -34.550781 154.53125 -26.0625 C 146.894531 -17.582031 137.992188 -10.90625 127.828125 -6.03125 C 117.671875 -1.164062 106.628906 1.265625 94.703125 1.265625 Z M 23.921875 -89.421875 C 23.921875 -79.179688 25.6875 -69.359375 29.21875 -59.953125 C 32.75 -50.546875 37.660156 -42.144531 43.953125 -34.75 C 50.253906 -27.363281 57.726562 -21.488281 66.375 -17.125 C 75.019531 -12.757812 84.550781 -10.578125 94.96875 -10.578125 C 105.539062 -10.578125 115.191406 -12.84375 123.921875 -17.375 C 132.660156 -21.914062 140.132812 -27.960938 146.34375 -35.515625 C 152.5625 -43.078125 157.304688 -51.515625 160.578125 -60.828125 C 163.847656 -70.148438 165.484375 -79.679688 165.484375 -89.421875 C 165.484375 -99.660156 163.765625 -109.484375 160.328125 -118.890625 C 156.890625 -128.296875 151.976562 -136.691406 145.59375 -144.078125 C 139.207031 -151.472656 131.691406 -157.351562 123.046875 -161.71875 C 114.398438 -166.082031 105.039062 -168.265625 94.96875 -168.265625 C 84.21875 -168.265625 74.472656 -165.992188 65.734375 -161.453125 C 57.003906 -156.921875 49.570312 -150.875 43.4375 -143.3125 C 37.3125 -135.757812 32.523438 -127.320312 29.078125 -118 C 25.640625 -108.6875 23.921875 -99.160156 23.921875 -89.421875 Z M 23.921875 -89.421875 "/></g></g></g></g><g transform="matrix(1,0,0,1,93,294)"><g clip-path="url(#6ca4ca7a42)"><g style="fill:#ffffff;fill-opacity:1;"><g transform="translate(-0.0463964, 22.212954)"><path style="stroke:none" d="M 13.5625 -3.984375 C 13.5625 -3.210938 13.363281 -2.523438 12.96875 -1.921875 C 12.582031 -1.316406 12.054688 -0.84375 11.390625 -0.5 C 10.734375 -0.164062 10.015625 0 9.234375 0 L 1.9375 0 L 1.9375 -15.453125 L 9.375 -15.453125 C 10.101562 -15.453125 10.734375 -15.257812 11.265625 -14.875 C 11.796875 -14.488281 12.203125 -13.992188 12.484375 -13.390625 C 12.765625 -12.796875 12.90625 -12.171875 12.90625 -11.515625 C 12.90625 -10.742188 12.707031 -10.03125 12.3125 -9.375 C 11.925781 -8.726562 11.382812 -8.242188 10.6875 -7.921875 C 11.570312 -7.660156 12.269531 -7.171875 12.78125 -6.453125 C 13.300781 -5.742188 13.5625 -4.921875 13.5625 -3.984375 Z M 12.03125 -4.25 C 12.03125 -4.769531 11.914062 -5.25 11.6875 -5.6875 C 11.457031 -6.132812 11.140625 -6.492188 10.734375 -6.765625 C 10.335938 -7.046875 9.882812 -7.1875 9.375 -7.1875 L 3.453125 -7.1875 L 3.453125 -1.328125 L 9.234375 -1.328125 C 9.753906 -1.328125 10.222656 -1.460938 10.640625 -1.734375 C 11.066406 -2.015625 11.40625 -2.375 11.65625 -2.8125 C 11.90625 -3.257812 12.03125 -3.738281 12.03125 -4.25 Z M 3.453125 -14.125 L 3.453125 -8.421875 L 8.765625 -8.421875 C 9.273438 -8.421875 9.722656 -8.554688 10.109375 -8.828125 C 10.503906 -9.097656 10.816406 -9.445312 11.046875 -9.875 C 11.285156 -10.3125 11.40625 -10.78125 11.40625 -11.28125 C 11.40625 -11.800781 11.296875 -12.273438 11.078125 -12.703125 C 10.859375 -13.128906 10.5625 -13.472656 10.1875 -13.734375 C 9.8125 -13.992188 9.382812 -14.125 8.90625 -14.125 Z M 3.453125 -14.125 "/></g></g><g style="fill:#ffffff;fill-opacity:1;"><g transform="translate(16.168124, 22.212954)"><path style="stroke:none" d="M 6.71875 -15.453125 L 8.015625 -15.453125 L 14.4375 0 L 12.8125 0 L 10.8125 -4.828125 L 3.875 -4.828125 L 1.890625 0 L 0.265625 0 Z M 10.46875 -6.03125 L 7.359375 -13.671875 L 4.203125 -6.03125 Z M 10.46875 -6.03125 "/></g></g><g style="fill:#ffffff;fill-opacity:1;"><g transform="translate(32.600277, 22.212954)"><path style="stroke:none" d="M 10.96875 -12.5625 C 10.75 -12.800781 10.492188 -13.019531 10.203125 -13.21875 C 9.910156 -13.414062 9.582031 -13.585938 9.21875 -13.734375 C 8.863281 -13.878906 8.476562 -13.992188 8.0625 -14.078125 C 7.644531 -14.171875 7.207031 -14.21875 6.75 -14.21875 C 5.394531 -14.21875 4.398438 -13.957031 3.765625 -13.4375 C 3.140625 -12.925781 2.828125 -12.226562 2.828125 -11.34375 C 2.828125 -10.726562 2.972656 -10.242188 3.265625 -9.890625 C 3.566406 -9.546875 4.035156 -9.265625 4.671875 -9.046875 C 5.316406 -8.835938 6.132812 -8.613281 7.125 -8.375 C 8.21875 -8.144531 9.164062 -7.867188 9.96875 -7.546875 C 10.769531 -7.234375 11.382812 -6.800781 11.8125 -6.25 C 12.25 -5.707031 12.46875 -4.972656 12.46875 -4.046875 C 12.46875 -3.335938 12.328125 -2.722656 12.046875 -2.203125 C 11.773438 -1.679688 11.394531 -1.242188 10.90625 -0.890625 C 10.414062 -0.546875 9.828125 -0.289062 9.140625 -0.125 C 8.460938 0.0390625 7.71875 0.125 6.90625 0.125 C 6.101562 0.125 5.332031 0.0390625 4.59375 -0.125 C 3.863281 -0.289062 3.171875 -0.535156 2.515625 -0.859375 C 1.867188 -1.179688 1.265625 -1.597656 0.703125 -2.109375 L 1.453125 -3.359375 C 1.734375 -3.066406 2.066406 -2.789062 2.453125 -2.53125 C 2.835938 -2.28125 3.265625 -2.050781 3.734375 -1.84375 C 4.203125 -1.644531 4.707031 -1.488281 5.25 -1.375 C 5.800781 -1.269531 6.363281 -1.21875 6.9375 -1.21875 C 8.175781 -1.21875 9.140625 -1.441406 9.828125 -1.890625 C 10.515625 -2.335938 10.859375 -3.003906 10.859375 -3.890625 C 10.859375 -4.535156 10.679688 -5.046875 10.328125 -5.421875 C 9.984375 -5.804688 9.460938 -6.125 8.765625 -6.375 C 8.078125 -6.625 7.222656 -6.863281 6.203125 -7.09375 C 5.128906 -7.34375 4.222656 -7.617188 3.484375 -7.921875 C 2.742188 -8.222656 2.1875 -8.625 1.8125 -9.125 C 1.445312 -9.625 1.265625 -10.289062 1.265625 -11.125 C 1.265625 -12.082031 1.5 -12.890625 1.96875 -13.546875 C 2.4375 -14.210938 3.082031 -14.710938 3.90625 -15.046875 C 4.738281 -15.390625 5.691406 -15.5625 6.765625 -15.5625 C 7.453125 -15.5625 8.085938 -15.492188 8.671875 -15.359375 C 9.265625 -15.222656 9.8125 -15.019531 10.3125 -14.75 C 10.8125 -14.488281 11.273438 -14.164062 11.703125 -13.78125 Z M 10.96875 -12.5625 "/></g></g><g style="fill:#ffffff;fill-opacity:1;"><g transform="translate(47.53079, 22.212954)"><path style="stroke:none" d="M 1.9375 0 L 1.9375 -15.453125 L 3.453125 -15.453125 L 3.453125 0 Z M 1.9375 0 "/></g></g><g style="fill:#ffffff;fill-opacity:1;"><g transform="translate(54.648494, 22.212954)"><path style="stroke:none" d="M 1.9375 0 L 1.9375 -15.453125 L 3.453125 -15.453125 L 3.453125 -1.34375 L 12.390625 -1.34375 L 12.390625 0 Z M 1.9375 0 "/></g></g><g style="fill:#ffffff;fill-opacity:1;"><g transform="translate(69.056702, 22.212954)"><path style="stroke:none" d=""/></g></g><g style="fill:#ffffff;fill-opacity:1;"><g transform="translate(76.326743, 22.212954)"><path style="stroke:none" d="M 8.15625 0.109375 C 7.070312 0.109375 6.085938 -0.109375 5.203125 -0.546875 C 4.316406 -0.984375 3.550781 -1.570312 2.90625 -2.3125 C 2.269531 -3.0625 1.78125 -3.90625 1.4375 -4.84375 C 1.09375 -5.78125 0.921875 -6.742188 0.921875 -7.734375 C 0.921875 -8.753906 1.097656 -9.734375 1.453125 -10.671875 C 1.816406 -11.609375 2.328125 -12.441406 2.984375 -13.171875 C 3.648438 -13.910156 4.425781 -14.492188 5.3125 -14.921875 C 6.195312 -15.347656 7.15625 -15.5625 8.1875 -15.5625 C 9.269531 -15.5625 10.253906 -15.335938 11.140625 -14.890625 C 12.023438 -14.441406 12.78125 -13.835938 13.40625 -13.078125 C 14.039062 -12.328125 14.53125 -11.484375 14.875 -10.546875 C 15.226562 -9.617188 15.40625 -8.671875 15.40625 -7.703125 C 15.40625 -6.671875 15.222656 -5.6875 14.859375 -4.75 C 14.503906 -3.820312 14 -2.988281 13.34375 -2.25 C 12.6875 -1.519531 11.914062 -0.941406 11.03125 -0.515625 C 10.144531 -0.0976562 9.1875 0.109375 8.15625 0.109375 Z M 2.4375 -7.734375 C 2.4375 -6.890625 2.570312 -6.078125 2.84375 -5.296875 C 3.125 -4.523438 3.515625 -3.835938 4.015625 -3.234375 C 4.523438 -2.628906 5.132812 -2.148438 5.84375 -1.796875 C 6.550781 -1.441406 7.320312 -1.265625 8.15625 -1.265625 C 9.039062 -1.265625 9.832031 -1.445312 10.53125 -1.8125 C 11.238281 -2.1875 11.84375 -2.679688 12.34375 -3.296875 C 12.851562 -3.910156 13.238281 -4.601562 13.5 -5.375 C 13.757812 -6.144531 13.890625 -6.929688 13.890625 -7.734375 C 13.890625 -8.566406 13.75 -9.367188 13.46875 -10.140625 C 13.195312 -10.910156 12.800781 -11.597656 12.28125 -12.203125 C 11.769531 -12.816406 11.164062 -13.296875 10.46875 -13.640625 C 9.769531 -13.992188 9 -14.171875 8.15625 -14.171875 C 7.289062 -14.171875 6.503906 -13.988281 5.796875 -13.625 C 5.097656 -13.257812 4.5 -12.769531 4 -12.15625 C 3.5 -11.539062 3.113281 -10.847656 2.84375 -10.078125 C 2.570312 -9.304688 2.4375 -8.523438 2.4375 -7.734375 Z M 2.4375 -7.734375 "/></g></g><g style="fill:#ffffff;fill-opacity:1;"><g transform="translate(94.391085, 22.212954)"><path style="stroke:none" d="M 15.625 0 L 15.625 -12.578125 L 10.03125 -2.8125 L 9.078125 -2.8125 L 3.453125 -12.578125 L 3.453125 0 L 1.9375 0 L 1.9375 -15.453125 L 3.5 -15.453125 L 9.53125 -4.875 L 15.609375 -15.453125 L 17.15625 -15.453125 L 17.15625 0 Z M 15.625 0 "/></g></g><g style="fill:#ffffff;fill-opacity:1;"><g transform="translate(115.197523, 22.212954)"><path style="stroke:none" d="M 10.96875 -12.5625 C 10.75 -12.800781 10.492188 -13.019531 10.203125 -13.21875 C 9.910156 -13.414062 9.582031 -13.585938 9.21875 -13.734375 C 8.863281 -13.878906 8.476562 -13.992188 8.0625 -14.078125 C 7.644531 -14.171875 7.207031 -14.21875 6.75 -14.21875 C 5.394531 -14.21875 4.398438 -13.957031 3.765625 -13.4375 C 3.140625 -12.925781 2.828125 -12.226562 2.828125 -11.34375 C 2.828125 -10.726562 2.972656 -10.242188 3.265625 -9.890625 C 3.566406 -9.546875 4.035156 -9.265625 4.671875 -9.046875 C 5.316406 -8.835938 6.132812 -8.613281 7.125 -8.375 C 8.21875 -8.144531 9.164062 -7.867188 9.96875 -7.546875 C 10.769531 -7.234375 11.382812 -6.800781 11.8125 -6.25 C 12.25 -5.707031 12.46875 -4.972656 12.46875 -4.046875 C 12.46875 -3.335938 12.328125 -2.722656 12.046875 -2.203125 C 11.773438 -1.679688 11.394531 -1.242188 10.90625 -0.890625 C 10.414062 -0.546875 9.828125 -0.289062 9.140625 -0.125 C 8.460938 0.0390625 7.71875 0.125 6.90625 0.125 C 6.101562 0.125 5.332031 0.0390625 4.59375 -0.125 C 3.863281 -0.289062 3.171875 -0.535156 2.515625 -0.859375 C 1.867188 -1.179688 1.265625 -1.597656 0.703125 -2.109375 L 1.453125 -3.359375 C 1.734375 -3.066406 2.066406 -2.789062 2.453125 -2.53125 C 2.835938 -2.28125 3.265625 -2.050781 3.734375 -1.84375 C 4.203125 -1.644531 4.707031 -1.488281 5.25 -1.375 C 5.800781 -1.269531 6.363281 -1.21875 6.9375 -1.21875 C 8.175781 -1.21875 9.140625 -1.441406 9.828125 -1.890625 C 10.515625 -2.335938 10.859375 -3.003906 10.859375 -3.890625 C 10.859375 -4.535156 10.679688 -5.046875 10.328125 -5.421875 C 9.984375 -5.804688 9.460938 -6.125 8.765625 -6.375 C 8.078125 -6.625 7.222656 -6.863281 6.203125 -7.09375 C 5.128906 -7.34375 4.222656 -7.617188 3.484375 -7.921875 C 2.742188 -8.222656 2.1875 -8.625 1.8125 -9.125 C 1.445312 -9.625 1.265625 -10.289062 1.265625 -11.125 C 1.265625 -12.082031 1.5 -12.890625 1.96875 -13.546875 C 2.4375 -14.210938 3.082031 -14.710938 3.90625 -15.046875 C 4.738281 -15.390625 5.691406 -15.5625 6.765625 -15.5625 C 7.453125 -15.5625 8.085938 -15.492188 8.671875 -15.359375 C 9.265625 -15.222656 9.8125 -15.019531 10.3125 -14.75 C 10.8125 -14.488281 11.273438 -14.164062 11.703125 -13.78125 Z M 10.96875 -12.5625 "/></g></g><g style="fill:#ffffff;fill-opacity:1;"><g transform="translate(130.128036, 22.212954)"><path style="stroke:none" d="M 14.125 -15.453125 L 14.125 0 L 12.625 0 L 12.625 -7.21875 L 3.453125 -7.21875 L 3.453125 0 L 1.9375 0 L 1.9375 -15.453125 L 3.453125 -15.453125 L 3.453125 -8.578125 L 12.625 -8.578125 L 12.625 -15.453125 Z M 14.125 -15.453125 "/></g></g><g style="fill:#ffffff;fill-opacity:1;"><g transform="translate(147.909471, 22.212954)"><path style="stroke:none" d="M 6.71875 -15.453125 L 8.015625 -15.453125 L 14.4375 0 L 12.8125 0 L 10.8125 -4.828125 L 3.875 -4.828125 L 1.890625 0 L 0.265625 0 Z M 10.46875 -6.03125 L 7.359375 -13.671875 L 4.203125 -6.03125 Z M 10.46875 -6.03125 "/></g></g><g style="fill:#000000;fill-opacity:1;"><g transform="translate(0.468341, 21.284331)"><path style="stroke:none" d="M 13.5625 -3.984375 C 13.5625 -3.210938 13.363281 -2.523438 12.96875 -1.921875 C 12.582031 -1.316406 12.054688 -0.84375 11.390625 -0.5 C 10.734375 -0.164062 10.015625 0 9.234375 0 L 1.9375 0 L 1.9375 -15.453125 L 9.375 -15.453125 C 10.101562 -15.453125 10.734375 -15.257812 11.265625 -14.875 C 11.796875 -14.488281 12.203125 -13.992188 12.484375 -13.390625 C 12.765625 -12.796875 12.90625 -12.171875 12.90625 -11.515625 C 12.90625 -10.742188 12.707031 -10.03125 12.3125 -9.375 C 11.925781 -8.726562 11.382812 -8.242188 10.6875 -7.921875 C 11.570312 -7.660156 12.269531 -7.171875 12.78125 -6.453125 C 13.300781 -5.742188 13.5625 -4.921875 13.5625 -3.984375 Z M 12.03125 -4.25 C 12.03125 -4.769531 11.914062 -5.25 11.6875 -5.6875 C 11.457031 -6.132812 11.140625 -6.492188 10.734375 -6.765625 C 10.335938 -7.046875 9.882812 -7.1875 9.375 -7.1875 L 3.453125 -7.1875 L 3.453125 -1.328125 L 9.234375 -1.328125 C 9.753906 -1.328125 10.222656 -1.460938 10.640625 -1.734375 C 11.066406 -2.015625 11.40625 -2.375 11.65625 -2.8125 C 11.90625 -3.257812 12.03125 -3.738281 12.03125 -4.25 Z M 3.453125 -14.125 L 3.453125 -8.421875 L 8.765625 -8.421875 C 9.273438 -8.421875 9.722656 -8.554688 10.109375 -8.828125 C 10.503906 -9.097656 10.816406 -9.445312 11.046875 -9.875 C 11.285156 -10.3125 11.40625 -10.78125 11.40625 -11.28125 C 11.40625 -11.800781 11.296875 -12.273438 11.078125 -12.703125 C 10.859375 -13.128906 10.5625 -13.472656 10.1875 -13.734375 C 9.8125 -13.992188 9.382812 -14.125 8.90625 -14.125 Z M 3.453125 -14.125 "/></g></g><g style="fill:#000000;fill-opacity:1;"><g transform="translate(16.682862, 21.284331)"><path style="stroke:none" d="M 6.71875 -15.453125 L 8.015625 -15.453125 L 14.4375 0 L 12.8125 0 L 10.8125 -4.828125 L 3.875 -4.828125 L 1.890625 0 L 0.265625 0 Z M 10.46875 -6.03125 L 7.359375 -13.671875 L 4.203125 -6.03125 Z M 10.46875 -6.03125 "/></g></g><g style="fill:#000000;fill-opacity:1;"><g transform="translate(33.115014, 21.284331)"><path style="stroke:none" d="M 10.96875 -12.5625 C 10.75 -12.800781 10.492188 -13.019531 10.203125 -13.21875 C 9.910156 -13.414062 9.582031 -13.585938 9.21875 -13.734375 C 8.863281 -13.878906 8.476562 -13.992188 8.0625 -14.078125 C 7.644531 -14.171875 7.207031 -14.21875 6.75 -14.21875 C 5.394531 -14.21875 4.398438 -13.957031 3.765625 -13.4375 C 3.140625 -12.925781 2.828125 -12.226562 2.828125 -11.34375 C 2.828125 -10.726562 2.972656 -10.242188 3.265625 -9.890625 C 3.566406 -9.546875 4.035156 -9.265625 4.671875 -9.046875 C 5.316406 -8.835938 6.132812 -8.613281 7.125 -8.375 C 8.21875 -8.144531 9.164062 -7.867188 9.96875 -7.546875 C 10.769531 -7.234375 11.382812 -6.800781 11.8125 -6.25 C 12.25 -5.707031 12.46875 -4.972656 12.46875 -4.046875 C 12.46875 -3.335938 12.328125 -2.722656 12.046875 -2.203125 C 11.773438 -1.679688 11.394531 -1.242188 10.90625 -0.890625 C 10.414062 -0.546875 9.828125 -0.289062 9.140625 -0.125 C 8.460938 0.0390625 7.71875 0.125 6.90625 0.125 C 6.101562 0.125 5.332031 0.0390625 4.59375 -0.125 C 3.863281 -0.289062 3.171875 -0.535156 2.515625 -0.859375 C 1.867188 -1.179688 1.265625 -1.597656 0.703125 -2.109375 L 1.453125 -3.359375 C 1.734375 -3.066406 2.066406 -2.789062 2.453125 -2.53125 C 2.835938 -2.28125 3.265625 -2.050781 3.734375 -1.84375 C 4.203125 -1.644531 4.707031 -1.488281 5.25 -1.375 C 5.800781 -1.269531 6.363281 -1.21875 6.9375 -1.21875 C 8.175781 -1.21875 9.140625 -1.441406 9.828125 -1.890625 C 10.515625 -2.335938 10.859375 -3.003906 10.859375 -3.890625 C 10.859375 -4.535156 10.679688 -5.046875 10.328125 -5.421875 C 9.984375 -5.804688 9.460938 -6.125 8.765625 -6.375 C 8.078125 -6.625 7.222656 -6.863281 6.203125 -7.09375 C 5.128906 -7.34375 4.222656 -7.617188 3.484375 -7.921875 C 2.742188 -8.222656 2.1875 -8.625 1.8125 -9.125 C 1.445312 -9.625 1.265625 -10.289062 1.265625 -11.125 C 1.265625 -12.082031 1.5 -12.890625 1.96875 -13.546875 C 2.4375 -14.210938 3.082031 -14.710938 3.90625 -15.046875 C 4.738281 -15.390625 5.691406 -15.5625 6.765625 -15.5625 C 7.453125 -15.5625 8.085938 -15.492188 8.671875 -15.359375 C 9.265625 -15.222656 9.8125 -15.019531 10.3125 -14.75 C 10.8125 -14.488281 11.273438 -14.164062 11.703125 -13.78125 Z M 10.96875 -12.5625 "/></g></g><g style="fill:#000000;fill-opacity:1;"><g transform="translate(48.045527, 21.284331)"><path style="stroke:none" d="M 1.9375 0 L 1.9375 -15.453125 L 3.453125 -15.453125 L 3.453125 0 Z M 1.9375 0 "/></g></g><g style="fill:#000000;fill-opacity:1;"><g transform="translate(55.163232, 21.284331)"><path style="stroke:none" d="M 1.9375 0 L 1.9375 -15.453125 L 3.453125 -15.453125 L 3.453125 -1.34375 L 12.390625 -1.34375 L 12.390625 0 Z M 1.9375 0 "/></g></g><g style="fill:#000000;fill-opacity:1;"><g transform="translate(69.57144, 21.284331)"><path style="stroke:none" d=""/></g></g><g style="fill:#000000;fill-opacity:1;"><g transform="translate(76.84148, 21.284331)"><path style="stroke:none" d="M 8.15625 0.109375 C 7.070312 0.109375 6.085938 -0.109375 5.203125 -0.546875 C 4.316406 -0.984375 3.550781 -1.570312 2.90625 -2.3125 C 2.269531 -3.0625 1.78125 -3.90625 1.4375 -4.84375 C 1.09375 -5.78125 0.921875 -6.742188 0.921875 -7.734375 C 0.921875 -8.753906 1.097656 -9.734375 1.453125 -10.671875 C 1.816406 -11.609375 2.328125 -12.441406 2.984375 -13.171875 C 3.648438 -13.910156 4.425781 -14.492188 5.3125 -14.921875 C 6.195312 -15.347656 7.15625 -15.5625 8.1875 -15.5625 C 9.269531 -15.5625 10.253906 -15.335938 11.140625 -14.890625 C 12.023438 -14.441406 12.78125 -13.835938 13.40625 -13.078125 C 14.039062 -12.328125 14.53125 -11.484375 14.875 -10.546875 C 15.226562 -9.617188 15.40625 -8.671875 15.40625 -7.703125 C 15.40625 -6.671875 15.222656 -5.6875 14.859375 -4.75 C 14.503906 -3.820312 14 -2.988281 13.34375 -2.25 C 12.6875 -1.519531 11.914062 -0.941406 11.03125 -0.515625 C 10.144531 -0.0976562 9.1875 0.109375 8.15625 0.109375 Z M 2.4375 -7.734375 C 2.4375 -6.890625 2.570312 -6.078125 2.84375 -5.296875 C 3.125 -4.523438 3.515625 -3.835938 4.015625 -3.234375 C 4.523438 -2.628906 5.132812 -2.148438 5.84375 -1.796875 C 6.550781 -1.441406 7.320312 -1.265625 8.15625 -1.265625 C 9.039062 -1.265625 9.832031 -1.445312 10.53125 -1.8125 C 11.238281 -2.1875 11.84375 -2.679688 12.34375 -3.296875 C 12.851562 -3.910156 13.238281 -4.601562 13.5 -5.375 C 13.757812 -6.144531 13.890625 -6.929688 13.890625 -7.734375 C 13.890625 -8.566406 13.75 -9.367188 13.46875 -10.140625 C 13.195312 -10.910156 12.800781 -11.597656 12.28125 -12.203125 C 11.769531 -12.816406 11.164062 -13.296875 10.46875 -13.640625 C 9.769531 -13.992188 9 -14.171875 8.15625 -14.171875 C 7.289062 -14.171875 6.503906 -13.988281 5.796875 -13.625 C 5.097656 -13.257812 4.5 -12.769531 4 -12.15625 C 3.5 -11.539062 3.113281 -10.847656 2.84375 -10.078125 C 2.570312 -9.304688 2.4375 -8.523438 2.4375 -7.734375 Z M 2.4375 -7.734375 "/></g></g><g style="fill:#000000;fill-opacity:1;"><g transform="translate(94.905823, 21.284331)"><path style="stroke:none" d="M 15.625 0 L 15.625 -12.578125 L 10.03125 -2.8125 L 9.078125 -2.8125 L 3.453125 -12.578125 L 3.453125 0 L 1.9375 0 L 1.9375 -15.453125 L 3.5 -15.453125 L 9.53125 -4.875 L 15.609375 -15.453125 L 17.15625 -15.453125 L 17.15625 0 Z M 15.625 0 "/></g></g><g style="fill:#000000;fill-opacity:1;"><g transform="translate(115.71226, 21.284331)"><path style="stroke:none" d="M 10.96875 -12.5625 C 10.75 -12.800781 10.492188 -13.019531 10.203125 -13.21875 C 9.910156 -13.414062 9.582031 -13.585938 9.21875 -13.734375 C 8.863281 -13.878906 8.476562 -13.992188 8.0625 -14.078125 C 7.644531 -14.171875 7.207031 -14.21875 6.75 -14.21875 C 5.394531 -14.21875 4.398438 -13.957031 3.765625 -13.4375 C 3.140625 -12.925781 2.828125 -12.226562 2.828125 -11.34375 C 2.828125 -10.726562 2.972656 -10.242188 3.265625 -9.890625 C 3.566406 -9.546875 4.035156 -9.265625 4.671875 -9.046875 C 5.316406 -8.835938 6.132812 -8.613281 7.125 -8.375 C 8.21875 -8.144531 9.164062 -7.867188 9.96875 -7.546875 C 10.769531 -7.234375 11.382812 -6.800781 11.8125 -6.25 C 12.25 -5.707031 12.46875 -4.972656 12.46875 -4.046875 C 12.46875 -3.335938 12.328125 -2.722656 12.046875 -2.203125 C 11.773438 -1.679688 11.394531 -1.242188 10.90625 -0.890625 C 10.414062 -0.546875 9.828125 -0.289062 9.140625 -0.125 C 8.460938 0.0390625 7.71875 0.125 6.90625 0.125 C 6.101562 0.125 5.332031 0.0390625 4.59375 -0.125 C 3.863281 -0.289062 3.171875 -0.535156 2.515625 -0.859375 C 1.867188 -1.179688 1.265625 -1.597656 0.703125 -2.109375 L 1.453125 -3.359375 C 1.734375 -3.066406 2.066406 -2.789062 2.453125 -2.53125 C 2.835938 -2.28125 3.265625 -2.050781 3.734375 -1.84375 C 4.203125 -1.644531 4.707031 -1.488281 5.25 -1.375 C 5.800781 -1.269531 6.363281 -1.21875 6.9375 -1.21875 C 8.175781 -1.21875 9.140625 -1.441406 9.828125 -1.890625 C 10.515625 -2.335938 10.859375 -3.003906 10.859375 -3.890625 C 10.859375 -4.535156 10.679688 -5.046875 10.328125 -5.421875 C 9.984375 -5.804688 9.460938 -6.125 8.765625 -6.375 C 8.078125 -6.625 7.222656 -6.863281 6.203125 -7.09375 C 5.128906 -7.34375 4.222656 -7.617188 3.484375 -7.921875 C 2.742188 -8.222656 2.1875 -8.625 1.8125 -9.125 C 1.445312 -9.625 1.265625 -10.289062 1.265625 -11.125 C 1.265625 -12.082031 1.5 -12.890625 1.96875 -13.546875 C 2.4375 -14.210938 3.082031 -14.710938 3.90625 -15.046875 C 4.738281 -15.390625 5.691406 -15.5625 6.765625 -15.5625 C 7.453125 -15.5625 8.085938 -15.492188 8.671875 -15.359375 C 9.265625 -15.222656 9.8125 -15.019531 10.3125 -14.75 C 10.8125 -14.488281 11.273438 -14.164062 11.703125 -13.78125 Z M 10.96875 -12.5625 "/></g></g><g style="fill:#000000;fill-opacity:1;"><g transform="translate(130.642773, 21.284331)"><path style="stroke:none" d="M 14.125 -15.453125 L 14.125 0 L 12.625 0 L 12.625 -7.21875 L 3.453125 -7.21875 L 3.453125 0 L 1.9375 0 L 1.9375 -15.453125 L 3.453125 -15.453125 L 3.453125 -8.578125 L 12.625 -8.578125 L 12.625 -15.453125 Z M 14.125 -15.453125 "/></g></g><g style="fill:#000000;fill-opacity:1;"><g transform="translate(148.424208, 21.284331)"><path style="stroke:none" d="M 6.71875 -15.453125 L 8.015625 -15.453125 L 14.4375 0 L 12.8125 0 L 10.8125 -4.828125 L 3.875 -4.828125 L 1.890625 0 L 0.265625 0 Z M 10.46875 -6.03125 L 7.359375 -13.671875 L 4.203125 -6.03125 Z M 10.46875 -6.03125 "/></g></g></g></g></g></svg>